{
	"accessors": [
		{
			"bufferView": 2,
			"componentType": 5126,
			"count": 59870,
			"max": [1.0672149658203125, 0.5132189989089966, 2.083878993988037],
			"min": [
				-1.0672149658203125, -0.5132189989089966, 0.0008060000254772604
			],
			"type": "VEC3"
		},
		{
			"bufferView": 2,
			"byteOffset": 718440,
			"componentType": 5126,
			"count": 59870,
			"max": [1.0, 0.9999996423721313, 1.0],
			"min": [-1.0, -0.9999996423721313, -1.0],
			"type": "VEC3"
		},
		{
			"bufferView": 3,
			"componentType": 5126,
			"count": 59870,
			"max": [0.9999999403953552, 1.0, 0.9999845623970032, 1.0],
			"min": [-0.9999998211860657, -1.0, -0.9999996423721313, -1.0],
			"type": "VEC4"
		},
		{
			"bufferView": 1,
			"componentType": 5126,
			"count": 59870,
			"max": [0.9711800217628479, 0.9969180226325989],
			"min": [0.0030819999519735575, 0.0030819999519735575],
			"type": "VEC2"
		},
		{
			"bufferView": 0,
			"componentType": 5125,
			"count": 324348,
			"type": "SCALAR"
		}
	],
	"asset": {
		"extras": {
			"author": "emelyarules (https://sketchfab.com/emelyarules)",
			"license": "CC-BY-4.0 (http://creativecommons.org/licenses/by/4.0/)",
			"source": "https://sketchfab.com/3d-models/womens-bag-f5bef92473d94fc5b2b01c16a02154aa",
			"title": "Women's bag"
		},
		"generator": "Sketchfab-12.64.0",
		"version": "2.0"
	},
	"bufferViews": [
		{
			"buffer": 0,
			"byteLength": 1297392,
			"name": "floatBufferViews",
			"target": 34963
		},
		{
			"buffer": 0,
			"byteLength": 478960,
			"byteOffset": 1297392,
			"byteStride": 8,
			"name": "floatBufferViews",
			"target": 34962
		},
		{
			"buffer": 0,
			"byteLength": 1436880,
			"byteOffset": 1776352,
			"byteStride": 12,
			"name": "floatBufferViews",
			"target": 34962
		},
		{
			"buffer": 0,
			"byteLength": 957920,
			"byteOffset": 3213232,
			"byteStride": 16,
			"name": "floatBufferViews",
			"target": 34962
		}
	],
	"buffers": [
		{
			"byteLength": 4171152,
			"uri": "scene.bin"
		}
	],
	"images": [
		{
			"uri": "textures/map_BagWomen_01_baseColor.png"
		},
		{
			"uri": "textures/map_BagWomen_01_metallicRoughness.png"
		},
		{
			"uri": "textures/map_BagWomen_01_normal.png"
		}
	],
	"materials": [
		{
			"doubleSided": true,
			"name": "map_BagWomen_01",
			"normalTexture": {
				"index": 2
			},
			"occlusionTexture": {
				"index": 1
			},
			"pbrMetallicRoughness": {
				"baseColorTexture": {
					"index": 0
				},
				"metallicRoughnessTexture": {
					"index": 1
				}
			}
		}
	],
	"meshes": [
		{
			"name": "Object_0",
			"primitives": [
				{
					"attributes": {
						"NORMAL": 1,
						"POSITION": 0,
						"TANGENT": 2,
						"TEXCOORD_0": 3
					},
					"indices": 4,
					"material": 0,
					"mode": 4
				}
			]
		}
	],
	"nodes": [
		{
			"children": [1],
			"matrix": [
				1.0, 0.0, 0.0, 0.0, 0.0, 2.220446049250313e-16, -1.0, 0.0, 0.0,
				1.0, 2.220446049250313e-16, 0.0, 0.0, 0.0, 0.0, 1.0
			],
			"name": "Sketchfab_model"
		},
		{
			"children": [2],
			"name": "BagWomen1_low.obj.cleaner.materialmerger.gles"
		},
		{
			"mesh": 0,
			"name": "cloth1"
		}
	],
	"samplers": [
		{
			"magFilter": 9729,
			"minFilter": 9987,
			"wrapS": 10497,
			"wrapT": 10497
		}
	],
	"scene": 0,
	"scenes": [
		{
			"name": "Sketchfab_Scene",
			"nodes": [0]
		}
	],
	"textures": [
		{
			"sampler": 0,
			"source": 0
		},
		{
			"sampler": 0,
			"source": 1
		},
		{
			"sampler": 0,
			"source": 2
		}
	]
}
